<defs>
<font horiz-adv-x="410" ><font-face
    font-family="sixcaps"
    units-per-em="2048"
    panose-1="2 0 5 8 2 0 0 2 0 4"
    ascent="2263"
    descent="-432"
    alphabetic="0" />
<missing-glyph horiz-adv-x="0" />
<glyph unicode=";" glyph-name="uni0000" horiz-adv-x="0" />
<glyph unicode=";" glyph-name="uni0002" horiz-adv-x="0" />
<glyph unicode="&#x9;" glyph-name="uni0009" horiz-adv-x="0" />
<glyph unicode="&#xa;" glyph-name="uni000A" horiz-adv-x="0" />
<glyph unicode="&#xd;" glyph-name="uni000D" horiz-adv-x="0" />
<glyph unicode=" " glyph-name="space" horiz-adv-x="237" />
<glyph unicode="!" glyph-name="exclam" horiz-adv-x="259" d="M224 1728L160 256H96L32 1728H224ZM192 160V0H64V160H192Z" />
<glyph unicode="&quot;" glyph-name="quotedbl" horiz-adv-x="448" d="M384 1728L352 1376H288L256 1728H384ZM192 1728L160 1376H96L64 1728H192Z" />
<glyph unicode="#" glyph-name="numbersign" horiz-adv-x="512" d="M480 608H418L384 0H256L290 608H194L160 0H32L66 608H0V704H71L87 992H32V1088H93L128 1728H256L221 1088H317L352 1728H480L445 1088H512V992H439L423 704H480V608ZM199 704H295L311 992H215L199 704Z" />
<glyph unicode="$" glyph-name="dollar" horiz-adv-x="461" d="M183 -13Q156 -6 132 7T89 40Q72 60 62 87T52 150V737H187V150Q187 130 199 119T232 107Q249 107 260 118T272 150V421Q272 527 263 603T238 736T203 835T162 914T122 988T87 1073T62 1182T52 1330V1625Q52
1686 89 1722T183 1775V2001H288V1772Q342 1756 376 1719Q391 1701 399 1678T408 1628V1108H272V1626Q272 1643 261 1654T232 1665Q213 1665 200 1653T187 1625V1376Q187 1291 196 1228T221 1115T257 1026T297 951T338 877T373 793T398 688T408 550V154Q408 82
378 43T288 -13V-240H183V-13Z" />
<glyph unicode="%" glyph-name="percent" horiz-adv-x="1084" d="M1036 362Q1036 331 1022 304T984 257T928 224T861 212Q824 212 792 224T735 257T697 306T683 367V909Q683 941 697 969T735 1018T791 1051T861 1063Q896 1063 928 1052T984 1020T1022 973T1036
912V362ZM898 933Q898 949 887 958T861 968Q845 968 833 959T820 933V342Q820 334 830 322T861 310Q876 310 887 319T898 342V933ZM402 844Q402 813 388 786T349 738T293 705T226 693Q190 693 158 705T101 738T63 787T48 849V1391Q48 1422 62 1450T101 1499T157
1532T226 1545Q261 1545 293 1534T349 1502T387 1454T402 1393V844ZM264 1415Q264 1430 253 1440T226 1450Q211 1450 199 1440T186 1415V824Q186 815 196 804T226 792Q242 792 253 801T264 824V1415ZM701 1761L512 0H378L567 1761H701Z" />
<glyph unicode="&amp;" glyph-name="ampersand" horiz-adv-x="491" d="M415 1077H280V1638Q280 1652 267 1663T231 1674Q213 1674 200 1663T186 1638V1062Q186 1029 192 1011T211 985T241 976T282 974V857Q259 857 241 857T211 851T193 833T186 797V127Q186 112
199 100T231 88Q254 88 267 100T280 127V749H503L502 638L415 636V124Q415 95 401 69T361 22T303 -9T231 -21Q195 -21 163 -10T106 22T67 70T52 127V801Q52 840 67 865T103 903Q127 919 156 926Q125 932 103 950Q83 964 68 990T52 1062V1638Q52 1668 66 1695T105
1741T162 1772T231 1784Q269 1784 302 1773T361 1743T400 1696T415 1638V1077Z" />
<glyph unicode="&apos;" glyph-name="quotesingle" horiz-adv-x="273" d="M216 1761L174 1402H88L57 1761H216Z" />
<glyph unicode="(" glyph-name="parenleft" horiz-adv-x="352" d="M32 896Q32 984 33 1080T43 1268T68 1444T117 1590T198 1691T320 1728V1632Q280 1632 253 1602T208 1520T180 1396T166 1243T161 1073T160 896Q160 808 160 715T165 532T180 364T207 226T252 131T320
96V0Q248 0 199 42T117 154T68 316T43 507T34 707T32 896Z" />
<glyph unicode=")" glyph-name="parenright" horiz-adv-x="352" d="M320 896Q320 984 319 1080T309 1268T284 1444T235 1590T154 1691T32 1728V1632Q72 1632 99 1602T144 1520T172 1396T186 1243T191 1073T192 896Q192 808 192 715T187 532T172 364T145 226T100
131T32 96V0Q104 0 153 42T235 154T284 316T309 507T318 707T320 896Z" />
<glyph unicode="*" glyph-name="asterisk" horiz-adv-x="608" d="M408 1161L305 1326L207 1161L122 1210L224 1376H32V1472H225L122 1639L206 1688L305 1521L408 1688L492 1639L383 1472H576V1376H384L492 1210L408 1161Z" />
<glyph unicode="+" glyph-name="plus" horiz-adv-x="640" d="M32 896H256V1152H384V896H608V768H384V512H256V768H32V896Z" />
<glyph unicode="," glyph-name="comma" horiz-adv-x="192" d="M160 192L128 -160H32V192H160Z" />
<glyph unicode="-" glyph-name="hyphen" horiz-adv-x="544" d="M512 704H32V832H512V704Z" />
<glyph unicode="." glyph-name="period" horiz-adv-x="224" d="M192 160V0H32V160H192Z" />
<glyph unicode="/" glyph-name="slash" horiz-adv-x="352" d="M320 1728L160 0H32L192 1728H320Z" />
<glyph unicode="0" glyph-name="zero" horiz-adv-x="416" d="M384 160Q384 112 369 76T329 16T273 -20T208 -32Q175 -32 144 -20T87 16T47 76T32 160V1568Q32 1616 47 1652T87 1712T143 1748T208 1760Q241 1760 272 1748T329 1712T369 1652T384 1568V160ZM256
1568Q256 1604 241 1622T208 1640Q190 1640 175 1622T160 1568V160Q160 124 175 106T208 88Q226 88 241 106T256 160V1568Z" />
<glyph unicode="1" glyph-name="one" horiz-adv-x="384" d="M32 96H128V1632H32V1728H256V96H352V0H32V96Z" />
<glyph unicode="2" glyph-name="two" horiz-adv-x="416" d="M32 1568Q32 1632 58 1674T123 1738T208 1760T293 1739T358 1675T384 1568Q384 1538 384 1521T380 1484T371 1432T354 1341T327 1186T287 944T233 588T160 96H384V0H32Q75 301 108 524T165 908T205 1175T231
1349T246 1452T253 1508T256 1539V1568Q256 1616 241 1640T208 1664T175 1640T160 1568V1280H32V1568Z" />
<glyph unicode="3" glyph-name="three" horiz-adv-x="448" d="M32 1568Q32 1616 47 1652T87 1712T143 1748T208 1760Q241 1760 272 1748T329 1712T369 1652T384 1568V1024Q384 1012 383 995T372 960T344 925T288 896Q324 884 343 867T372 832T382 797T384 768V160Q384
112 369 76T329 16T273 -20T208 -32Q175 -32 144 -20T87 16T47 76T32 160V608H160V160Q160 112 175 88T208 64Q226 64 241 88T256 160V768Q256 792 251 805T236 824T216 831T192 832H128V960H192Q204 960 215 961T236 968T250 987T256 1025V1568Q256 1616 241 1640T208
1664Q190 1664 175 1640T160 1568V1152H32V1568Z" />
<glyph unicode="4" glyph-name="four" horiz-adv-x="448" d="M384 1120V0H256V352H32L96 1728H224L160 470H256V1120H384Z" />
<glyph unicode="5" glyph-name="five" horiz-adv-x="451" d="M288 864Q288 900 273 918T240 936Q222 936 207 918T192 864H64V1728H416V1632H192V992Q211 1021 239 1037T297 1053Q319 1053 340 1043T379 1009T406 951T416 864V160Q416 112 401 76T361 16T305 -20T240
-32Q207 -32 176 -20T119 16T79 76T64 160V736H192V160Q192 112 207 88T240 64Q258 64 273 88T288 160V864Z" />
<glyph unicode="6" glyph-name="six" horiz-adv-x="480" d="M192 992Q221 1006 248 1014T298 1022Q352 1022 384 978T416 832V160Q416 112 401 76T361 16T305 -20T240 -32Q207 -32 176 -20T119 16T79 76T64 160V1568Q64 1616 79 1652T119 1712T175 1748T240 1760Q273
1760 304 1748T361 1712T401 1652T416 1568V1216H288V1568Q288 1616 273 1640T240 1664Q222 1664 207 1640T192 1568V992ZM288 832Q288 868 278 882T252 896Q237 896 221 886T192 864V160Q192 124 207 106T240 88Q258 88 273 106T288 160V832Z" />
<glyph unicode="7" glyph-name="seven" horiz-adv-x="352" d="M64 0L192 1632H32V1728H320L192 0H64Z" />
<glyph unicode="8" glyph-name="eight" horiz-adv-x="437" d="M208 -32Q175 -32 144 -20T87 16T47 76T32 160V416Q32 549 47 645T80 804Q101 878 128 928Q101 977 80 1040Q62 1094 47 1170T32 1344V1568Q32 1616 47 1652T87 1712T143 1748T208 1760Q241 1760 272
1748T329 1712T369 1652T384 1568V1344Q384 1247 369 1171T336 1040Q315 977 288 928Q315 878 336 804Q354 741 369 645T384 416V160Q384 112 369 76T329 16T273 -20T208 -32ZM208 1640Q190 1640 175 1622T160 1568V1312Q160 1264 167 1213T184 1119Q195 1070 209
1023Q221 1070 232 1119Q241 1161 248 1212T256 1312V1568Q256 1604 241 1622T208 1640ZM209 832Q195 768 184 702Q175 645 168 578T160 448V160Q160 124 175 106T208 88Q226 88 241 106T256 160V448Q256 510 249 577T232 702Q221 768 209 832Z" />
<glyph unicode="9" glyph-name="nine" horiz-adv-x="480" d="M288 736Q259 722 232 714T182 706Q128 706 96 750T64 896V1568Q64 1616 79 1652T119 1712T175 1748T240 1760Q273 1760 304 1748T361 1712T401 1652T416 1568V160Q416 112 401 76T361 16T305 -20T240
-32Q207 -32 176 -20T119 16T79 76T64 160V512H192V160Q192 112 207 88T240 64Q258 64 273 88T288 160V736ZM192 896Q192 860 202 846T228 832Q243 832 259 842T288 864V1568Q288 1604 273 1622T240 1640Q222 1640 207 1622T192 1568V896Z" />
<glyph unicode=":" glyph-name="colon" horiz-adv-x="224" d="M192 1120V960H32V1120H192ZM192 448V288H32V448H192Z" />
<glyph unicode=";" glyph-name="semicolon" horiz-adv-x="224" d="M192 1120V960H32V1120H192ZM192 480L128 128H32V480H192Z" />
<glyph unicode="&lt;" glyph-name="less" horiz-adv-x="371" d="M5 876L288 0V391L141 876L288 1393V1761L5 876Z" />
<glyph unicode="=" glyph-name="equal" horiz-adv-x="576" d="M544 512H32V640H544V512ZM544 736H32V864H544V736Z" />
<glyph unicode="&gt;" glyph-name="greater" horiz-adv-x="371" d="M314 876L31 0V391L178 876L31 1393V1761L314 876Z" />
<glyph unicode="?" glyph-name="question" horiz-adv-x="433" d="M256 256H128V544Q128 651 137 723T161 849T192 948T223 1047T246 1170T256 1344V1568Q256 1612 241 1633T207 1655Q190 1655 175 1634T160 1568V1120H32V1568Q32 1616 47 1652T87 1712T143 1748T208
1760Q241 1760 272 1748T329 1712T369 1652T384 1568V1344Q384 1260 379 1200T364 1095T344 1013T320 940T297 862T276 763T262 630T256 448V256ZM256 128V0H128V128H256Z" />
<glyph unicode="@" glyph-name="at" horiz-adv-x="928" d="M640 288Q640 240 655 216T688 192T721 216T736 288V1376Q736 1442 713 1491T651 1574T564 1623T464 1640T364 1624T277 1574T216 1492T192 1376V288Q192 198 216 137T283 36T380 -23T495 -53T618 -63T736
-64L704 -160Q632 -160 557 -158T410 -144T276 -104T166 -28T92 99T64 288V1376Q64 1472 98 1544T189 1664T317 1736T464 1760T611 1736T739 1664T829 1544T864 1376V288Q864 224 845 181T797 114T732 84T665 89T609 126T576 192Q568 152 544 126T487 89T420 84T356
114T307 181T288 288V1376Q288 1432 314 1470T379 1529T464 1550T549 1534T614 1476T640 1376V288ZM512 1376Q512 1412 497 1430T464 1448T431 1430T416 1376V288Q416 240 431 216T464 192T497 216T512 288V1376Z" />
<glyph unicode="A" glyph-name="A" horiz-adv-x="448" d="M416 0H288L272 416H177L160 0H32L128 1728H320L416 0ZM256 896L224 1664L192 896L177 512H272L256 896Z" />
<glyph unicode="B" glyph-name="B" horiz-adv-x="512" d="M448 160Q448 100 426 68T368 20T286 3T192 0H64V1728H192Q252 1728 299 1726T380 1708T430 1661T448 1568V1024Q448 976 424 950T352 911Q400 900 424 874T448 800V160ZM192 960H288Q300 960 306 965T316
980T319 1000T320 1024V1568Q320 1592 314 1605T292 1624T253 1631T192 1632V960ZM320 800Q320 812 320 823T316 844T307 858T288 864H192V96Q228 96 252 97T292 104T313 123T320 160V800Z" />
<glyph unicode="C" glyph-name="C" horiz-adv-x="512" d="M448 1024H320V1568Q320 1592 315 1607T300 1631T280 1643T256 1647Q244 1647 233 1644T212 1632T198 1608T192 1568V160Q192 148 193 132T200 100T219 75T256 64Q280 64 293 74T312 100T319 131T320 160V832H448V160Q448
148 445 117T424 52T367 -6T256 -32Q184 -32 145 -7T88 52T67 116T64 160V1568Q64 1614 81 1647T125 1702T187 1733T256 1743Q293 1743 327 1732T389 1699T432 1644T448 1568V1024Z" />
<glyph unicode="D" glyph-name="D" horiz-adv-x="512" d="M320 1568Q320 1592 314 1605T292 1624T253 1631T192 1632V96Q228 96 252 97T292 104T313 123T320 160V1568ZM448 160Q448 100 426 68T368 20T286 3T192 0H64V1728H192Q240 1728 286 1726T368 1708T426
1661T448 1568V160Z" />
<glyph unicode="E" glyph-name="E" horiz-adv-x="384" d="M352 1632H192V960H320V864H192V96H352V0H64V1728H352V1632Z" />
<glyph unicode="F" glyph-name="F" horiz-adv-x="384" d="M352 1632H192V992H320V896H192V0H64V1728H352V1632Z" />
<glyph unicode="G" glyph-name="G" horiz-adv-x="512" d="M448 1024H320V1568Q320 1580 319 1594T312 1619T293 1639T256 1647Q232 1647 219 1639T200 1620T193 1594T192 1568V160Q192 148 193 132T200 100T219 75T256 64Q280 64 293 74T312 100T319 131T320 160V800H288V896H448V160Q448
148 445 117T424 52T367 -6T256 -32Q184 -32 145 -7T88 52T67 116T64 160V1568Q64 1576 65 1592T71 1627T88 1667T121 1705T175 1732T256 1743Q304 1743 337 1733T391 1705T424 1668T441 1628T447 1592T448 1568V1024Z" />
<glyph unicode="H" glyph-name="H" horiz-adv-x="512" d="M192 928H320V1728H448V0H320V832H192V0H64V1728H192V928Z" />
<glyph unicode="I" glyph-name="I" horiz-adv-x="288" d="M208 1728V0H80V1728H208Z" />
<glyph unicode="J" glyph-name="J" horiz-adv-x="512" d="M448 160Q445 106 424 64Q415 46 401 29T367 -2T320 -24T256 -32Q220 -32 193 -24T145 -3T111 28T88 64Q67 106 64 160V832H192V160Q192 148 193 132T200 100T219 75T256 64Q280 64 293 74T312 100T319
131T320 160V1728H448V160Z" />
<glyph unicode="K" glyph-name="K" horiz-adv-x="480" d="M448 0H320L192 864V0H64V1728H192V928L320 1728H448L320 992L306 896L320 800L448 0Z" />
<glyph unicode="L" glyph-name="L" horiz-adv-x="384" d="M192 1728V96H320V0H64V1728H192Z" />
<glyph unicode="M" glyph-name="M" horiz-adv-x="640" d="M416 1728H544L576 0H448V1184L352 96H288L192 1184V0H64L96 1728H224L320 544L416 1728Z" />
<glyph unicode="N" glyph-name="N" horiz-adv-x="512" d="M448 0H320L160 1280V0H64V1728H192L352 448V1728H448V0Z" />
<glyph unicode="O" glyph-name="O" horiz-adv-x="512" d="M448 160Q448 148 445 117T424 52T367 -6T256 -32Q184 -32 145 -7T88 52T67 116T64 160V1568Q64 1576 65 1592T71 1627T88 1667T121 1705T175 1732T256 1743Q304 1743 337 1733T391 1705T424 1668T441
1628T447 1592T448 1568V160ZM192 160Q192 148 193 132T200 100T219 75T256 64Q280 64 293 74T312 100T319 131T320 160V1568Q320 1580 319 1594T312 1619T293 1639T256 1647Q232 1647 219 1639T200 1620T193 1594T192 1568V160Z" />
<glyph unicode="P" glyph-name="P" horiz-adv-x="480" d="M448 992Q448 932 426 900T368 852T286 835T192 832V0H64V1728H192Q288 1728 340 1712T416 1672T444 1620T448 1568V992ZM320 1568Q320 1592 314 1605T292 1624T253 1631T192 1632V928Q216 928 239 929T280
936T309 955T320 992V1568Z" />
<glyph unicode="Q" glyph-name="Q" horiz-adv-x="512" d="M192 1568Q192 1580 193 1594T200 1619T219 1639T256 1647T293 1639T312 1620T319 1594T320 1568V160Q320 148 319 132T312 100T293 75T256 64T219 74T200 100T193 131T192 160V1568ZM448 1568Q448 1576
447 1592T441 1627T424 1667T391 1705T337 1732T256 1743T175 1733T121 1705T88 1668T71 1628T65 1592T64 1568V160Q64 148 67 117T88 52T145 -6Q166 -20 195 -26L224 -256H352L323 -25Q349 -18 367 -6Q406 19 424 52T445 116T448 160V1568Z" />
<glyph unicode="R" glyph-name="R" horiz-adv-x="512" d="M448 1024Q448 952 424 924T352 896Q376 896 394 885T424 856T442 815T448 768V0H320V800Q320 824 309 837T280 856T239 863T192 864V0H64V1728H192Q240 1728 286 1726T368 1708T426 1661T448 1568V1024ZM320
1568Q320 1592 314 1605T292 1624T253 1631T192 1632V928Q216 928 239 929T280 936T309 955T320 992V1568Z" />
<glyph unicode="S" glyph-name="S" horiz-adv-x="448" d="M288 421Q288 527 277 603T248 735T207 834T160 913T113 987T72 1071T43 1179T32 1327V1568Q32 1592 39 1622T68 1679T126 1724T224 1743Q284 1743 321 1725T380 1680T408 1623T416 1568V1120H288V1568Q288
1592 283 1607T268 1631T248 1643T224 1647Q212 1647 201 1644T180 1632T166 1608T160 1568V1373Q160 1260 179 1184T226 1052T288 949T349 850T397 726T416 550V160Q416 148 413 117T392 52T335 -6T224 -32Q152 -32 113 -7T56 52T35 116T32 160V736H160V160Q160
148 161 132T168 100T187 75T224 64Q248 64 261 74T280 100T287 131T288 160V421Z" />
<glyph unicode="T" glyph-name="T" horiz-adv-x="448" d="M416 1728V1632H288V0H160V1632H32V1728H416Z" />
<glyph unicode="U" glyph-name="U" horiz-adv-x="512" d="M192 160Q192 148 193 132T200 100T219 75T256 64Q280 64 293 74T312 100T319 131T320 160V1728H448V160Q448 148 445 117T424 52T367 -6T256 -32Q184 -32 145 -7T88 52T67 116T64 160V1728H192V160Z" />
<glyph unicode="V" glyph-name="V" horiz-adv-x="448" d="M193 1184L224 544L255 1184L288 1728H416L288 0H160L32 1728H160L193 1184Z" />
<glyph unicode="W" glyph-name="W" horiz-adv-x="704" d="M352 1472L320 992L256 0H128L32 1728H160L192 512L288 1728H416L512 512L544 1728H672L576 0H448L384 992L352 1472Z" />
<glyph unicode="X" glyph-name="X" horiz-adv-x="416" d="M192 1280L209 1024L224 1280L256 1728H384L288 864L384 0H256L224 448L208 704L192 448L160 0H32L128 864L32 1728H160L192 1280Z" />
<glyph unicode="Y" glyph-name="Y" horiz-adv-x="448" d="M192 1280L224 832L256 1280L288 1728H416L288 608V0H160V608L32 1728H160L192 1280Z" />
<glyph unicode="Z" glyph-name="Z" horiz-adv-x="352" d="M320 1728L160 96H320V0H32L192 1632H32V1728H320Z" />
<glyph unicode="[" glyph-name="bracketleft" horiz-adv-x="433" d="M6 1856V-96H262V0H134V1760H262V1856H6Z" />
<glyph unicode="\" glyph-name="backslash" horiz-adv-x="324" d="M135 1761L324 0H190L1 1761H135Z" />
<glyph unicode="]" glyph-name="bracketright" horiz-adv-x="392" d="M288 1856V-96H32V0H160V1760H32V1856H288Z" />
<glyph unicode="^" glyph-name="asciicircum" horiz-adv-x="320" d="M224 1120L288 768H192L160 1024L128 768H32L96 1120H224Z" />
<glyph unicode="_" glyph-name="underscore" horiz-adv-x="544" d="M544 -96H0V0H544V-96Z" />
<glyph unicode="`" glyph-name="grave" horiz-adv-x="326" d="M160 512L288 96H192L0 512H160Z" />
<glyph unicode="a" glyph-name="a" horiz-adv-x="448" d="M416 0H288L268 332H179L160 0H32L160 1536H288L416 0ZM261 436L224 1216L186 436H261Z" />
<glyph unicode="b" glyph-name="b" horiz-adv-x="512" d="M192 832H288Q300 832 306 837T316 852T319 872T320 896V1376Q320 1400 314 1413T292 1432T253 1439T192 1440V832ZM320 672Q320 684 320 695T316 716T307 730T288 736H192V96Q214 96 237 97T278 103T308
122T320 160V672ZM448 896Q448 848 423 822T343 783Q398 772 423 746T448 672V160Q448 100 426 68T368 20T286 3T192 0H64V1536H192Q252 1536 299 1534T380 1516T430 1469T448 1376V896Z" />
<glyph unicode="c" glyph-name="c" horiz-adv-x="512" d="M448 896H320V1392Q320 1426 303 1440T264 1455Q251 1455 239 1451T216 1438T199 1418T192 1392V144Q192 130 198 118T215 98T238 85T264 80Q286 80 303 95T320 144V704H448V144Q448 104 431 74T387 23T325
-8T254 -19Q218 -19 184 -9T123 21T80 72T64 144V1392Q64 1432 80 1463T124 1514T186 1544T257 1555Q293 1555 327 1545T388 1515T431 1464T448 1392V896Z" />
<glyph unicode="d" glyph-name="d" horiz-adv-x="512" d="M320 1410Q320 1429 302 1434Q285 1440 192 1440V96Q285 96 302 102Q320 108 320 127V1410ZM448 135Q448 84 427 57T363 16Q343 10 314 7T234 1Q183 0 144 0H64V1536Q105 1536 146 1536T231 1534Q319 1532
361 1521Q404 1509 426 1483T448 1407V135Z" />
<glyph unicode="e" glyph-name="e" horiz-adv-x="352" d="M320 1440H192V864H320V768H192V96H320V0H64V1536H320V1440Z" />
<glyph unicode="f" glyph-name="f" horiz-adv-x="368" d="M352 1440H192V864H320V768H192V0H64V1536H352V1440Z" />
<glyph unicode="g" glyph-name="g" horiz-adv-x="480" d="M192 144Q192 108 207 94T240 80Q258 80 273 94T288 144V672H256V768H416V144Q416 102 401 72T361 22T305 -7T240 -16Q207 -16 176 -7T119 21T79 71T64 144V1408Q64 1450 79 1480T119 1530T175 1559T240
1568Q273 1568 304 1559T361 1531T401 1481T416 1409V896H288V1409Q288 1445 273 1458T240 1472Q222 1472 207 1459T192 1409V144Z" />
<glyph unicode="h" glyph-name="h" horiz-adv-x="512" d="M320 1536H448V0H320V746H192V0H64V1536H192V846H320V1536Z" />
<glyph unicode="i" glyph-name="i" horiz-adv-x="288" d="M208 1536V0H80V1536H208Z" />
<glyph unicode="j" glyph-name="j" horiz-adv-x="480" d="M416 144Q416 102 401 72T361 22T305 -7T240 -16Q207 -16 176 -7T119 21T79 71T64 144V704H192V144Q192 108 207 94T240 80Q258 80 273 94T288 144V1536H416V144Z" />
<glyph unicode="k" glyph-name="k" horiz-adv-x="448" d="M416 0H288L192 704V0H64V1536H192V832L288 1536H416L305 768L416 0Z" />
<glyph unicode="l" glyph-name="l" horiz-adv-x="320" d="M192 1536V96H320V0H64V1536H192Z" />
<glyph unicode="m" glyph-name="m" horiz-adv-x="576" d="M399 1536H512V0H400V928L313 64H263L176 928V0H64V1536H177L288 608L399 1536Z" />
<glyph unicode="n" glyph-name="n" horiz-adv-x="512" d="M448 0H352L176 896V0H64V1536H160L337 608V1536H448V0Z" />
<glyph unicode="o" glyph-name="o" horiz-adv-x="512" d="M448 144Q448 102 433 72T391 21T332 -8T264 -18Q227 -18 191 -8T127 23T82 74T64 144V1392Q64 1430 81 1459T127 1509T192 1539T265 1550Q300 1550 333 1541T391 1512T432 1462T448 1392V144ZM320 1392Q320
1426 304 1440T265 1455Q252 1455 239 1451T216 1438T199 1418T192 1392V144Q192 130 198 118T215 98T238 86T264 81Q286 81 303 95T320 144V1392Z" />
<glyph unicode="p" glyph-name="p" horiz-adv-x="480" d="M448 864Q448 804 426 772T368 724T286 707T192 704V0H64V1536H224Q309 1536 354 1520T421 1480T445 1428T448 1376V864ZM320 1376Q320 1400 314 1413T292 1432T253 1439T192 1440V800Q216 800 239 801T280
812T309 840T320 896V1376Z" />
<glyph unicode="q" glyph-name="q" horiz-adv-x="512" d="M192 64H320L384 -192H256L192 64ZM448 144Q448 102 433 72T391 21T332 -8T264 -18Q227 -18 191 -8T127 23T82 74T64 144V1392Q64 1430 81 1459T127 1509T192 1539T265 1550Q300 1550 333 1541T391 1512T432
1462T448 1392V144ZM320 1392Q320 1426 304 1440T265 1455Q252 1455 239 1451T216 1438T199 1418T192 1392V144Q192 130 198 118T215 98T238 86T264 81Q286 81 303 95T320 144V1392Z" />
<glyph unicode="r" glyph-name="r" horiz-adv-x="480" d="M416 896Q416 848 392 822T320 785Q368 772 392 746T416 672V0H288V672Q288 696 282 709T264 728T234 735T192 736V0H64V1536H208Q273 1536 319 1526T391 1489T416 1408V896ZM288 1376Q288 1400 282 1413T264
1432T234 1439T192 1440V832Q216 832 234 833T264 840T282 859T288 896V1376Z" />
<glyph unicode="s" glyph-name="s" horiz-adv-x="480" d="M416 992H288V1392Q288 1428 273 1442T240 1456Q222 1456 207 1442T192 1392Q192 1285 202 1195T228 1029T264 891T304 776Q320 735 339 681T376 552T404 377T416 144Q416 102 401 72T361 22T305 -7T240
-16Q207 -16 176 -7T119 21T79 71T64 144V544H192V144Q192 108 207 94T240 80Q258 80 273 94T288 144Q288 273 276 370T244 542T203 673T161 776Q142 822 125 881T94 1015T72 1183T64 1392Q64 1434 79 1464T119 1513T175 1542T240 1552Q273 1552 304 1543T361 1514T401
1464T416 1392V992Z" />
<glyph unicode="t" glyph-name="t" horiz-adv-x="416" d="M400 1536V1440H272V0H144V1440H16V1536H400Z" />
<glyph unicode="u" glyph-name="u" horiz-adv-x="480" d="M288 1536H416V144Q416 102 401 72T361 22T305 -7T240 -16Q207 -16 176 -7T119 21T79 71T64 144V1536H192V144Q192 108 207 94T240 80Q258 80 273 94T288 144V1536Z" />
<glyph unicode="v" glyph-name="v" horiz-adv-x="416" d="M192 832L209 160L224 832L256 1536H384L288 0H128L32 1536H160L192 832Z" />
<glyph unicode="w" glyph-name="w" horiz-adv-x="640" d="M448 191V832L480 1536H608L512 0H384L352 608L320 1280L288 608L256 0H128L32 1536H160L192 832V191L224 832L256 1536H384L416 832L448 191Z" />
<glyph unicode="x" glyph-name="x" horiz-adv-x="416" d="M224 1088L256 1536H384L288 736L384 0H256L224 384L208 640L192 384L160 0H32L128 736L32 1536H160L192 1088L208 832L224 1088Z" />
<glyph unicode="y" glyph-name="y" horiz-adv-x="448" d="M256 1152L288 1536H416L288 512V0H160V512L32 1536H160L192 1152L224 736L256 1152Z" />
<glyph unicode="z" glyph-name="z" horiz-adv-x="320" d="M288 1536L168 96H288V0H32L160 1440H32V1536H288Z" />
<glyph unicode="{" glyph-name="braceleft" horiz-adv-x="348" d="M338 1876V1758H189V6H338V-109H55V1876H338Z" />
<glyph unicode="|" glyph-name="bar" horiz-adv-x="247" d="M192 1882V-120H58V1882H192Z" />
<glyph unicode="}" glyph-name="braceright" horiz-adv-x="392" d="M282 1876V-109H-1V6H145V1758H-1V1876H282Z" />
<glyph unicode="~" glyph-name="asciitilde" horiz-adv-x="326" d="M-15 101Q-15 135 -10 164T8 214T40 248T89 260Q114 260 132 254T169 239T207 224T255 217Q265 217 271 223T280 238Q285 247 286 260H365Q365 237 363 218T355 181Q345 150 323 126T255 101Q230
101 209 108T168 123T129 138T90 145Q81 145 76 139T67 123Q64 115 64 101H-15Z" />
</font>
</defs>
</svg>
